<?xml version="1.0" standalone="no"?><!DOCTYPE svg PUBLIC "-//W3C//DTD SVG 1.1//EN" "http://www.w3.org/Graphics/SVG/1.1/DTD/svg11.dtd"><svg t="1644381129283" class="icon" viewBox="0 0 1024 1024" version="1.1" xmlns="http://www.w3.org/2000/svg" p-id="19752" xmlns:xlink="http://www.w3.org/1999/xlink" width="128" height="128"><defs><style type="text/css"></style></defs><path d="M512 512m-510.246575 0a510.246575 510.246575 0 1 0 1020.49315 0 510.246575 510.246575 0 1 0-1020.49315 0Z" fill="#FF005C" p-id="19753"></path><path d="M512 512m-455.890411 0a455.890411 455.890411 0 1 0 911.780822 0 455.890411 455.890411 0 1 0-911.780822 0Z" fill="#FFFFFF" p-id="19754"></path><path d="M512 441.863014c5.810849 0 10.520548-9.812164 10.520548-21.917809s-4.709699-13.150685-10.520548-13.150684-10.520548 1.045041-10.520548 13.150684 4.709699 21.917808 10.520548 21.917809zM512 336.657534c5.810849 0 10.520548-9.812164 10.520548-21.917808S517.810849 301.589041 512 301.589041s-10.520548 1.045041-10.520548 13.150685 4.709699 21.917808 10.520548 21.917808zM512 196.383562c5.810849 0 10.520548-9.812164 10.520548-21.917809S517.810849 161.315068 512 161.315068s-10.520548 1.045041-10.520548 13.150685 4.709699 21.917808 10.520548 21.917809zM557.382137 342.633205c5.610959 1.504438 12.701808-6.757699 15.833425-18.446027 3.135123-11.695342-1.143233-13.922192-6.757699-15.430137-5.610959-1.500932-10.432877-1.711342-13.564493 9.980493-3.135123 11.691836-1.122192 22.391233 4.488767 23.895671zM593.688548 207.139068c5.610959 1.504438 12.701808-6.757699 15.833425-18.446027 3.131616-11.695342-1.14674-13.922192-6.757699-15.430137-5.610959-1.500932-10.432877-1.711342-13.564493 9.980493-3.135123 11.691836-1.122192 22.391233 4.488767 23.895671zM547.068493 451.26137c5.032329 2.903671 14.016877-3.240329 20.069699-13.722302 6.052822-10.485479 2.496877-13.746849-2.535452-16.65052-5.032329-2.903671-9.633315-4.352-15.686137 6.129973-6.052822 10.485479-6.880438 21.335671-1.84811 24.239342zM599.671233 360.149918c5.032329 2.903671 14.016877-3.240329 20.069699-13.722302 6.052822-10.485479 2.496877-13.746849-2.535453-16.65052-5.032329-2.903671-9.633315-4.352-15.686137 6.129972-6.052822 10.485479-6.880438 21.335671-1.848109 24.24285zM669.808219 238.669151c5.032329 2.903671 14.016877-3.240329 20.069699-13.722302 6.052822-10.485479 2.496877-13.746849-2.535452-16.65052-5.032329-2.903671-9.633315-4.352-15.686137 6.129972-6.052822 10.485479-6.880438 21.335671-1.84811 24.24285zM635.984658 388.015342c4.110027 4.106521 14.378082 0.497973 22.938301-8.058739 8.556712-8.560219 5.968658-12.631671 1.85863-16.738192-4.106521-4.110027-8.177973-6.698082-16.738192 1.85863-8.556712 8.556712-12.168767 18.831781-8.058739 22.934795zM735.17589 288.82411c4.106521 4.110027 14.378082 0.501479 22.934795-8.05874 8.560219-8.556712 5.968658-12.628164 1.85863-16.738192-4.103014-4.106521-8.177973-6.698082-16.734685 1.85863-8.560219 8.560219-12.168767 18.831781-8.05874 22.938302zM572.73863 476.931507c2.907178 5.032329 13.760877 4.204712 24.242849-1.84811 10.485479-6.052822 9.033644-10.653808 6.129973-15.686137-2.907178-5.032329-6.168548-8.588274-16.65052-2.535452-10.485479 6.052822-16.622466 15.03737-13.718795 20.069699zM663.850082 424.328767c2.907178 5.032329 13.760877 4.204712 24.24285-1.848109 10.485479-6.052822 9.033644-10.653808 6.129972-15.686137-2.907178-5.032329-6.168548-8.588274-16.65052-2.535453-10.485479 6.052822-16.625973 15.03737-13.722302 20.069699zM785.330849 354.191781c2.907178 5.032329 13.760877 4.204712 24.24285-1.84811 10.485479-6.052822 9.033644-10.653808 6.129972-15.686137-2.907178-5.032329-6.168548-8.588274-16.65052-2.535452-10.485479 6.052822-16.625973 15.03737-13.722302 20.069699zM681.366795 466.617863c1.507945 5.610959 12.203836 7.62389 23.895671 4.488767 11.691836-3.131616 11.481425-7.953534 9.980493-13.564493-1.507945-5.610959-3.734795-9.889315-15.430137-6.757699-11.688329 3.131616-19.950466 10.222466-18.446027 15.833425zM816.860932 430.311452c1.507945 5.610959 12.203836 7.62389 23.895671 4.488767 11.691836-3.131616 11.481425-7.953534 9.980493-13.564493-1.507945-5.610959-3.734795-9.889315-15.430137-6.757699-11.688329 3.131616-19.950466 10.222466-18.446027 15.833425zM582.136986 512c0 5.810849 9.812164 10.520548 21.917809 10.520548s13.150685-4.709699 13.150684-10.520548-1.045041-10.520548-13.150684-10.520548-21.917808 4.709699-21.917809 10.520548zM687.342466 512c0 5.810849 9.812164 10.520548 21.917808 10.520548s13.150685-4.709699 13.150685-10.520548-1.045041-10.520548-13.150685-10.520548-21.917808 4.709699-21.917808 10.520548zM827.616438 512c0 5.810849 9.812164 10.520548 21.917809 10.520548s13.150685-4.709699 13.150685-10.520548-1.045041-10.520548-13.150685-10.520548-21.917808 4.709699-21.917809 10.520548zM681.366795 557.382137c-1.504438 5.610959 6.757699 12.701808 18.446027 15.833425 11.695342 3.135123 13.922192-1.143233 15.430137-6.757699 1.500932-5.610959 1.711342-10.432877-9.980493-13.564493-11.691836-3.135123-22.391233-1.122192-23.895671 4.488767zM816.860932 593.688548c-1.504438 5.610959 6.757699 12.701808 18.446027 15.833425 11.695342 3.131616 13.922192-1.14674 15.430137-6.757699 1.500932-5.610959 1.711342-10.432877-9.980493-13.564493-11.691836-3.135123-22.391233-1.122192-23.895671 4.488767zM572.73863 547.068493c-2.903671 5.032329 3.240329 14.016877 13.722302 20.069699 10.485479 6.052822 13.746849 2.496877 16.65052-2.535452 2.903671-5.032329 4.352-9.633315-6.129973-15.686137-10.485479-6.052822-21.335671-6.880438-24.239342-1.84811zM663.850082 599.671233c-2.903671 5.032329 3.240329 14.016877 13.722302 20.069699 10.485479 6.052822 13.746849 2.496877 16.65052-2.535453 2.903671-5.032329 4.352-9.633315-6.129972-15.686137-10.485479-6.052822-21.335671-6.880438-24.24285-1.848109zM785.330849 669.808219c-2.903671 5.032329 3.240329 14.016877 13.722302 20.069699 10.485479 6.052822 13.746849 2.496877 16.65052-2.535452 2.903671-5.032329 4.352-9.633315-6.129972-15.686137-10.485479-6.052822-21.335671-6.880438-24.24285-1.84811zM635.984658 635.984658c-4.106521 4.110027-0.497973 14.378082 8.058739 22.938301 8.560219 8.556712 12.631671 5.968658 16.738192 1.85863 4.110027-4.106521 6.698082-8.177973-1.85863-16.738192-8.556712-8.556712-18.831781-12.168767-22.934795-8.058739zM735.17589 735.17589c-4.110027 4.106521-0.501479 14.378082 8.05874 22.934795 8.556712 8.560219 12.628164 5.968658 16.738192 1.85863 4.106521-4.103014 6.698082-8.177973-1.85863-16.734685-8.560219-8.560219-18.831781-12.168767-22.938302-8.05874zM547.068493 572.73863c-5.032329 2.907178-4.204712 13.760877 1.84811 24.242849 6.052822 10.485479 10.653808 9.033644 15.686137 6.129973 5.032329-2.907178 8.588274-6.168548 2.535452-16.65052-6.052822-10.485479-15.03737-16.622466-20.069699-13.718795zM599.671233 663.850082c-5.032329 2.907178-4.204712 13.760877 1.848109 24.24285 6.052822 10.485479 10.653808 9.033644 15.686137 6.129972 5.032329-2.907178 8.588274-6.168548 2.535453-16.65052-6.052822-10.485479-15.03737-16.625973-20.069699-13.722302zM669.808219 785.330849c-5.032329 2.907178-4.204712 13.760877 1.84811 24.24285 6.052822 10.485479 10.653808 9.033644 15.686137 6.129972 5.032329-2.907178 8.588274-6.168548 2.535452-16.65052-6.052822-10.485479-15.03737-16.625973-20.069699-13.722302zM557.382137 681.366795c-5.610959 1.507945-7.62389 12.203836-4.488767 23.895671 3.131616 11.691836 7.953534 11.481425 13.564493 9.980493 5.610959-1.507945 9.889315-3.734795 6.757699-15.430137-3.131616-11.688329-10.222466-19.950466-15.833425-18.446027zM593.688548 816.860932c-5.610959 1.507945-7.62389 12.203836-4.488767 23.895671 3.131616 11.691836 7.953534 11.481425 13.564493 9.980493 5.610959-1.507945 9.889315-3.734795 6.757699-15.430137-3.131616-11.688329-10.222466-19.950466-15.833425-18.446027zM512 582.136986c-5.810849 0-10.520548 9.812164-10.520548 21.917809s4.709699 13.150685 10.520548 13.150684 10.520548-1.045041 10.520548-13.150684-4.709699-21.917808-10.520548-21.917809zM512 687.342466c-5.810849 0-10.520548 9.812164-10.520548 21.917808s4.709699 13.150685 10.520548 13.150685 10.520548-1.045041 10.520548-13.150685-4.709699-21.917808-10.520548-21.917808zM512 827.616438c-5.810849 0-10.520548 9.812164-10.520548 21.917809s4.709699 13.150685 10.520548 13.150685 10.520548-1.045041 10.520548-13.150685-4.709699-21.917808-10.520548-21.917809zM466.617863 681.366795c-5.610959-1.504438-12.701808 6.757699-15.833425 18.446027-3.135123 11.695342 1.143233 13.922192 6.757699 15.430137 5.610959 1.500932 10.432877 1.711342 13.564493-9.980493 3.135123-11.691836 1.122192-22.391233-4.488767-23.895671zM430.311452 816.860932c-5.610959-1.504438-12.701808 6.757699-15.833425 18.446027-3.131616 11.695342 1.14674 13.922192 6.757699 15.430137 5.610959 1.500932 10.432877 1.711342 13.564493-9.980493 3.135123-11.691836 1.122192-22.391233-4.488767-23.895671zM476.931507 572.73863c-5.032329-2.903671-14.016877 3.240329-20.069699 13.722302-6.052822 10.485479-2.496877 13.746849 2.535452 16.65052 5.032329 2.903671 9.633315 4.352 15.686137-6.129973 6.052822-10.485479 6.880438-21.335671 1.84811-24.239342zM424.328767 663.850082c-5.032329-2.903671-14.016877 3.240329-20.069699 13.722302-6.052822 10.485479-2.496877 13.746849 2.535453 16.65052 5.032329 2.903671 9.633315 4.352 15.686137-6.129972 6.052822-10.485479 6.880438-21.335671 1.848109-24.24285zM354.191781 785.330849c-5.032329-2.903671-14.016877 3.240329-20.069699 13.722302-6.052822 10.485479-2.496877 13.746849 2.535452 16.65052 5.032329 2.903671 9.633315 4.352 15.686137-6.129972 6.052822-10.485479 6.880438-21.335671 1.84811-24.24285zM388.015342 635.984658c-4.110027-4.106521-14.378082-0.497973-22.938301 8.058739-8.556712 8.560219-5.968658 12.631671-1.85863 16.738192 4.106521 4.110027 8.177973 6.698082 16.738192-1.85863 8.556712-8.556712 12.168767-18.831781 8.058739-22.934795zM288.82411 735.17589c-4.106521-4.110027-14.378082-0.501479-22.934795 8.05874-8.560219 8.556712-5.968658 12.628164-1.85863 16.738192 4.103014 4.106521 8.177973 6.698082 16.734685-1.85863 8.560219-8.560219 12.168767-18.831781 8.05874-22.938302zM451.26137 547.068493c-2.907178-5.032329-13.760877-4.204712-24.242849 1.84811-10.485479 6.052822-9.033644 10.653808-6.129973 15.686137 2.907178 5.032329 6.168548 8.588274 16.65052 2.535452 10.485479-6.052822 16.622466-15.03737 13.718795-20.069699zM360.149918 599.671233c-2.907178-5.032329-13.760877-4.204712-24.24285 1.848109-10.485479 6.052822-9.033644 10.653808-6.129972 15.686137 2.907178 5.032329 6.168548 8.588274 16.65052 2.535453 10.485479-6.052822 16.625973-15.03737 13.722302-20.069699zM238.669151 669.808219c-2.907178-5.032329-13.760877-4.204712-24.24285 1.84811-10.485479 6.052822-9.033644 10.653808-6.129972 15.686137 2.907178 5.032329 6.168548 8.588274 16.65052 2.535452 10.485479-6.052822 16.625973-15.03737 13.722302-20.069699zM342.633205 557.382137c-1.507945-5.610959-12.203836-7.62389-23.895671-4.488767-11.691836 3.131616-11.481425 7.953534-9.980493 13.564493 1.507945 5.610959 3.734795 9.889315 15.430137 6.757699 11.688329-3.131616 19.950466-10.222466 18.446027-15.833425zM207.139068 593.688548c-1.507945-5.610959-12.203836-7.62389-23.895671-4.488767-11.691836 3.131616-11.481425 7.953534-9.980493 13.564493 1.507945 5.610959 3.734795 9.889315 15.430137 6.757699 11.688329-3.131616 19.950466-10.222466 18.446027-15.833425zM441.863014 512c0-5.810849-9.812164-10.520548-21.917809-10.520548s-13.150685 4.709699-13.150684 10.520548 1.045041 10.520548 13.150684 10.520548 21.917808-4.709699 21.917809-10.520548zM336.657534 512c0-5.810849-9.812164-10.520548-21.917808-10.520548S301.589041 506.189151 301.589041 512s1.045041 10.520548 13.150685 10.520548 21.917808-4.709699 21.917808-10.520548zM196.383562 512c0-5.810849-9.812164-10.520548-21.917809-10.520548S161.315068 506.189151 161.315068 512s1.045041 10.520548 13.150685 10.520548 21.917808-4.709699 21.917809-10.520548zM342.633205 466.617863c1.504438-5.610959-6.757699-12.701808-18.446027-15.833425-11.695342-3.135123-13.922192 1.143233-15.430137 6.757699-1.500932 5.610959-1.711342 10.432877 9.980493 13.564493 11.691836 3.135123 22.391233 1.122192 23.895671-4.488767zM207.139068 430.311452c1.504438-5.610959-6.757699-12.701808-18.446027-15.833425-11.695342-3.131616-13.922192 1.14674-15.430137 6.757699-1.500932 5.610959-1.711342 10.432877 9.980493 13.564493 11.691836 3.135123 22.391233 1.122192 23.895671-4.488767zM451.26137 476.931507c2.903671-5.032329-3.240329-14.016877-13.722302-20.069699-10.485479-6.052822-13.746849-2.496877-16.65052 2.535452-2.903671 5.032329-4.352 9.633315 6.129973 15.686137 10.485479 6.052822 21.335671 6.880438 24.239342 1.84811zM360.149918 424.328767c2.903671-5.032329-3.240329-14.016877-13.722302-20.069699-10.485479-6.052822-13.746849-2.496877-16.65052 2.535453-2.903671 5.032329-4.352 9.633315 6.129972 15.686137 10.485479 6.052822 21.335671 6.880438 24.24285 1.848109zM238.669151 354.191781c2.903671-5.032329-3.240329-14.016877-13.722302-20.069699-10.485479-6.052822-13.746849-2.496877-16.65052 2.535452-2.903671 5.032329-4.352 9.633315 6.129972 15.686137 10.485479 6.052822 21.335671 6.880438 24.24285 1.84811zM388.015342 388.015342c4.106521-4.110027 0.497973-14.378082-8.058739-22.938301-8.560219-8.556712-12.631671-5.968658-16.738192-1.85863-4.110027 4.106521-6.698082 8.177973 1.85863 16.738192 8.556712 8.556712 18.831781 12.168767 22.934795 8.058739zM288.82411 288.82411c4.110027-4.106521 0.501479-14.378082-8.05874-22.934795-8.556712-8.560219-12.628164-5.968658-16.738192-1.85863-4.106521 4.103014-6.698082 8.177973 1.85863 16.734685 8.560219 8.560219 18.831781 12.168767 22.938302 8.05874zM476.931507 451.26137c5.032329-2.907178 4.204712-13.760877-1.84811-24.242849-6.052822-10.485479-10.653808-9.033644-15.686137-6.129973-5.032329 2.907178-8.588274 6.168548-2.535452 16.65052 6.052822 10.485479 15.03737 16.622466 20.069699 13.718795zM424.328767 360.149918c5.032329-2.907178 4.204712-13.760877-1.848109-24.24285-6.052822-10.485479-10.653808-9.033644-15.686137-6.129972-5.032329 2.907178-8.588274 6.168548-2.535453 16.65052 6.052822 10.485479 15.03737 16.625973 20.069699 13.722302zM354.191781 238.669151c5.032329-2.907178 4.204712-13.760877-1.84811-24.24285-6.052822-10.485479-10.653808-9.033644-15.686137-6.129972-5.032329 2.907178-8.588274 6.168548-2.535452 16.65052 6.052822 10.485479 15.03737 16.625973 20.069699 13.722302zM466.617863 342.633205c5.610959-1.507945 7.62389-12.203836 4.488767-23.895671-3.131616-11.691836-7.953534-11.481425-13.564493-9.980493-5.610959 1.507945-9.889315 3.734795-6.757699 15.430137 3.131616 11.688329 10.222466 19.950466 15.833425 18.446027zM430.311452 207.139068c5.610959-1.507945 7.62389-12.203836 4.488767-23.895671-3.131616-11.691836-7.953534-11.481425-13.564493-9.980493-5.610959 1.507945-9.889315 3.734795-6.757699 15.430137 3.131616 11.688329 10.222466 19.950466 15.833425 18.446027z" fill="#000000" p-id="19755"></path></svg>