<?xml version="1.0" standalone="no"?><!DOCTYPE svg PUBLIC "-//W3C//DTD SVG 1.1//EN" "http://www.w3.org/Graphics/SVG/1.1/DTD/svg11.dtd"><svg t="1644381114026" class="icon" viewBox="0 0 1024 1024" version="1.1" xmlns="http://www.w3.org/2000/svg" p-id="19424" xmlns:xlink="http://www.w3.org/1999/xlink" width="128" height="128"><defs><style type="text/css"></style></defs><path d="M512 512m-510.246575 0a510.246575 510.246575 0 1 0 1020.49315 0 510.246575 510.246575 0 1 0-1020.49315 0Z" fill="#FFB793" p-id="19425"></path><path d="M512 512m-490.958904 0a490.958904 490.958904 0 1 0 981.917808 0 490.958904 490.958904 0 1 0-981.917808 0Z" fill="#FFFAFA" p-id="19426"></path><path d="M508.791233 527.54937c-4.344986 6.831342-9.117808 14.304438-9.598247 15.507288-0.462904 1.15726 4.653589-5.130521 9.738521-11.45337 5.084932-6.319342 16.50674-5.909041 17.050301 0 0.543562 5.909041 0.683836 9.994521 0.683836 11.747945 0 1.392219 0.234959-4.404603 0.526027-10.383781 0.284055-5.979178 11.45337-6.435068 17.232658-1.329096 5.779288 5.109479 9.759562 9.223014 10.639781 9.938411 1.364164 1.111671-10.450411-11.754959-16.966137-18.898411-6.52274-7.139945 0.077151-11.537534 5.695123-11.64274 5.617973-0.101699 12.140712 0.028055 13.606575 0.028055 1.613151 0-7.511671-0.259507-14.09052-1.045041-2.805479-0.333151-6.301808-12.032-1.59211-16.510246 4.709699-4.47474 10.176877-9.41589 11.337644-10.720439 2.009425-2.254904-9.184438 5.751233-13.725808 8.448-4.54137 2.700274-11.214904 1.392219-11.397261-4.141589-0.18937-5.533808-1.265973-11.958356-1.265972-13.532931 0-1.571068-2.244384 10.864219-2.837041 13.532931-0.589151 2.668712-4.429151 7.760658-8.605808 4.888548-4.173151-2.87211-9.012603-7.311781-9.959453-8.255123-0.704877-0.704877 4.569425 8.079781 7.764165 13.196274 1.055562 1.693808-3.822466 10.054137-5.856439 10.036603-6.733151-0.052603-16.054356-0.904767-19.249095-0.904768-3.050959 0 9.429918 1.21337 16.632986 2.924713 7.199562 1.711342 8.577753 11.737425 4.236274 18.568767z" fill="#FEE4E4" p-id="19427"></path><path d="M504.986301 457.433425c-7.010192-14.949699-98.093589-323.057973-98.093589-349.748603 0-26.687123 37.232219-33.627178 60.167014-36.015343 22.934795-2.384658 61.745096-6.477151 72.995069 19.918905 11.249973 26.396055-20.970959 348.563288-20.970959 358.771726 0 10.204932-7.083836 22.026521-14.097535 7.076822zM483.801425 557.824c-10.422356 12.810521-176.022795 272.089425-187.402521 305.600877-11.376219 33.511452 35.598027 51.666411 57.273863 59.532274 21.675836 7.862356 53.724932 15.854466 71.027726-7.038247 17.302795-22.889205 73.124822-352.603178 75.593644-362.50652 2.468822-9.906849-6.073863-8.398904-16.492712 4.411616zM484.54137 463.770301c-9.608767-13.133151-180.301151-271.465205-187.276274-296.125369-6.97863-24.656658 18.10937-48.96263 36.699178-57.894576 18.589808-8.931945 57.259836-21.682849 67.212274 5.435617 9.955945 27.121973 95.751014 333.224329 98.567014 343.260931 2.816 10.036603-5.600438 18.453041-15.205699 5.323397z" fill="#FB7F83" p-id="19428"></path><path d="M479.80011 482.517918c-13.354082-9.289644-271.352986-203.590137-285.976548-224.63474-14.623562-21.044603 4.211726-53.756493 18.880876-68.253808 14.669151-14.500822 57.165151-43.365699 75.407781-20.963945 18.24263 22.40526 195.952219 298.099726 201.882302 306.673972 5.930082 8.57074 3.163178 16.468164-10.194411 7.178521zM528.485699 452.565918c0-11.358685 14.921644-340.637808 20.332712-360.977534 5.407562-20.339726 41.843726-25.396603 66.630137-17.281754 24.782904 8.114849 32.396274 29.324274 25.126575 46.343014-7.269699 17.015233-97.525479 325.512767-100.520328 334.693698-2.991342 9.173918-11.569096 8.577753-11.569096-2.777424z" fill="#FB7F83" p-id="19429"></path><path d="M540.054795 464.51726c0-5.491726 102.473644-354.556493 110.977753-367.62652 8.500603-13.070027 44.407233 1.062575 60.047781 9.422904 15.640548 8.360329 31.088219 22.033534 25.78937 36.327452-5.295342 14.290411-181.360219 310.261479-186.792329 319.063671-5.435616 8.802192-10.022575 8.304219-10.022575 2.812493zM468.816658 500.946411c-5.376 1.139726-368.794301-29.773151-383.347726-35.370082-14.553425-5.596932-7.515178-40.409425-2.588055-57.442192 4.927123-17.036274 15.089973-34.991342 30.169424-32.782027 15.079452 2.209315 341.19189 112.892493 350.930411 116.374794 9.738521 3.485808 10.204932 8.076274 4.835946 9.219507zM740.260822 144.355945c8.521644-10.496 37.610959 2.651178 57.315945 20.683397 19.704986 18.035726 45.027945 42.643288 36.653589 65.339617-8.374356 22.692822-267.64274 233.019616-275.182466 238.129096-7.539726 5.105973-15.637041 5.989699-5.411068-5.849425 10.225973-11.84263 178.095342-307.806685 186.624-318.302685z" fill="#FB7F83" p-id="19430"></path><path d="M107.723397 368.685589c-12.042521-6.158027-8.016658-40.861808 5.523288-63.884274 13.543452-23.022466 32.350685-52.911342 56.288438-49.436055 23.94126 3.471781 304.219178 227.243836 310.784 233.556165 6.564822 6.312329 7.22411 13.308493-6.487671 5.768767-13.708274-7.539726-354.069041-119.850082-366.108055-126.004603zM561.271233 478.134356c7.115397-10.744986 260.088986-232.293699 281.985753-237.024438 21.89326-4.727233 44.130192 25.189699 53.223452 42.657315 9.09326 17.46411 24.975781 50.049753 13.108603 60.058301-11.867178 10.008548-339.750575 150.317589-345.147616 152.600548-5.397041 2.282959-10.285589-7.54674-3.170192-18.291726zM459.611178 522.275068c-11.327123 6.151014-334.430685 87.246904-359.048767 78.858521-24.618082-8.388384-28.345863-44.919233-28.174027-64.610192 0.171836-19.694466-0.746959-59.237699 16.815342-63.680876 17.558795-4.443178 370.358356 31.281096 376.193753 31.796602 5.838904 0.515507 5.540822 11.491945-5.786301 17.639452z" fill="#FB7F83" p-id="19431"></path><path d="M567.078575 498.919452c5.035836-3.759342 326.617425-146.891397 344.523398-146.891397 16.166575 0 24.856548 19.603288 30.281643 41.871781 4.074959 16.710137 10.215452 40.128877-2.644164 50.24263-33.385205 26.255781-357.551342 64.340164-365.329534 64.340164-7.778192 0-11.867178-5.800329-6.831343-9.559671z" fill="#FB7F83" p-id="19432"></path><path d="M604.714082 510.632329c55.899178-1.367671 316.903452-55.955288 331.691836-55.955288 14.788384 0 18.340822 31.614247 18.340822 49.635945 0 18.025205-2.482849 35.804932-23.04 42.68537-20.550137 6.880438-345.859507-18.919452-356.309918-18.919452-10.450411 0-26.581918-16.078904 29.31726-17.446575z" fill="#FB7F83" p-id="19433"></path><path d="M564.862247 532.515068c11.292055 0 348.987616 16.25074 374.531506 21.61622 25.54389 5.365479 9.107288 95.053151-14.332493 95.05315-23.439781 0-351.652822-100.387068-360.199013-104.682959-8.546192-4.299397-11.292055-11.986411 0-11.986411zM559.044384 545.357151c8.272658 5.155068 341.987945 101.986192 354.784438 110.227287 7.329315 4.723726 11.116712 19.627836 0 50.716055-10.723945 29.994082-25.827945 30.208-38.13348 30.208-28.819288 0-313.838466-179.094795-319.379287-182.377205-5.540822-3.282411-5.540822-13.929205 2.728329-8.774137z" fill="#FB7F83" p-id="19434"></path><path d="M548.818411 554.131288c7.48011 5.681096 310.84011 182.861151 328.553205 196.071452 17.709589 13.213808-8.493589 46.504329-33.315068 71.518685-24.824986 25.010849-49.225644 46.977753-84.224 17.467616-34.998356-29.510137-203.516493-267.032548-211.014137-275.438466-7.497644-8.402411-7.48011-15.30389 0-9.619287zM485.397041 534.899726c-6.841863 6.435068-290.612603 206.188712-306.842301 221.180493-16.236712 14.991781 14.346521 50.197041 41.194959 75.804055 26.844932 25.603507 62.730521 37.116493 83.424438 8.539178 29.857315-41.237041 176.650521-286.814685 183.232877-295.957041 6.575342-9.138849 5.835397-16.001753-1.009973-9.566685z" fill="#FB7F83" p-id="19435"></path><path d="M535.790466 557.852055c2.644164 5.796822 78.343014 361.608767 92.461589 373.121753 14.115068 11.516493 63.463452-6.105425 83.189479-15.282849 19.722521-9.173918 66.412712-35.068493 53.57063-56.256877-12.842082-21.19189-223.789589-301.17874-224.957369-304.278794-1.167781-3.100055-6.908493-3.100055-4.264329 2.696767zM472.716274 523.660274c-14.027397 8.854795-327.297753 74.611726-358.154521 85.342685-30.860274 10.730959-4.590466 70.582356 4.239781 90.462685 8.830247 19.883836 33.904219 67.01589 55.313534 54.545534 21.412822-12.470356 305.039781-218.50126 308.160877-219.612931 3.121096-1.111671 4.467726-19.58926-9.559671-10.737973zM530.789699 556.957808c4.313425 5.902027 88.895123 373.121753 88.895123 382.891836 0 9.773589-36.436164 14.711233-46.21326 14.711233-9.777096 0-44.670247-0.227945-48.324384-14.711233-3.654137-14.483288-0.171836-364.659726 0-376.239343 0.171836-11.572603 1.332603-12.554521 5.646027-6.652493zM516.937644 554.825644c2.875616 6.72263 8.395397 371.129863 2.812493 385.104657-5.582904 13.974795-37.505753 13.974795-50.663452 11.912767-13.157699-2.062027-41.591233-10.450411-38.45611-29.187506 3.131616-18.737096 71.585315-348.843836 74.355726-360.086795 2.770411-11.242959 9.08274-14.462247 11.951343-7.743123z" fill="#FB7F83" p-id="19436"></path></svg>