<?xml version="1.0" standalone="no"?><!DOCTYPE svg PUBLIC "-//W3C//DTD SVG 1.1//EN" "http://www.w3.org/Graphics/SVG/1.1/DTD/svg11.dtd"><svg t="1644381134010" class="icon" viewBox="0 0 1024 1024" version="1.1" xmlns="http://www.w3.org/2000/svg" p-id="19910" xmlns:xlink="http://www.w3.org/1999/xlink" width="128" height="128"><defs><style type="text/css"></style></defs><path d="M512 512m-510.246575 0a510.246575 510.246575 0 1 0 1020.49315 0 510.246575 510.246575 0 1 0-1020.49315 0Z" fill="#962751" p-id="19911"></path><path d="M512 512m-490.958904 0a490.958904 490.958904 0 1 0 981.917808 0 490.958904 490.958904 0 1 0-981.917808 0Z" fill="#F1F59D" p-id="19912"></path><path d="M512 512m-473.424658 0a473.424658 473.424658 0 1 0 946.849316 0 473.424658 473.424658 0 1 0-946.849316 0Z" fill="#FDFFF2" p-id="19913"></path><path d="M512 512m-420.821918 0a420.821918 420.821918 0 1 0 841.643836 0 420.821918 420.821918 0 1 0-841.643836 0Z" fill="#F4556C" p-id="19914"></path><path d="M512 459.39726c5.810849 0 10.520548-9.812164 10.520548-21.917808s-4.709699-13.150685-10.520548-13.150685-10.520548 1.045041-10.520548 13.150685 4.709699 21.917808 10.520548 21.917808zM512 354.191781c5.810849 0 10.520548-9.812164 10.520548-21.917808S517.810849 319.123288 512 319.123288s-10.520548 1.045041-10.520548 13.150685 4.709699 21.917808 10.520548 21.917808zM539.490192 250.42411c5.775781 0.606685 11.488438-8.661918 12.750904-20.697425 1.265973-12.039014-3.306959-13.571507-9.086247-14.178192-5.779288-0.610192-10.573151-0.059616-11.839123 11.979397-1.262466 12.035507 2.395178 22.289534 8.170959 22.89622zM716.396712 346.476712c3.657644 4.516822 14.244822 1.998904 23.653699-5.617972s7.255671-11.937315 3.598027-16.45063c-3.654137-4.516822-7.434521-7.518685-16.83989 0.098191-9.40537 7.620384-14.069479 17.453589-10.415343 21.970411zM666.599452 299.221918c4.699178 3.415671 14.27989-1.753425 21.391781-11.548055 7.118904-9.79463 3.920658-13.406685-0.778521-16.822356-4.699178-3.415671-9.124822-5.337425-16.240219 4.453698-7.118904 9.79463-9.072219 20.501041-4.373041 23.916713zM752.264767 405.009534c2.363616 5.30937 13.24537 5.621479 24.302466 0.697863 11.057096-4.923616 10.099726-9.654356 7.736109-14.960219-2.363616-5.30937-5.235726-9.187945-16.292821-4.264329-11.060603 4.923616-18.10937 13.220822-15.745754 18.526685zM773.558356 539.45863c-0.606685 5.775781 8.661918 11.488438 20.700932 12.750904 12.035507 1.265973 13.571507-3.306959 14.178191-9.086246 0.606685-5.779288 0.059616-10.573151-11.979397-11.839124-12.039014-1.262466-22.289534 2.395178-22.899726 8.170959zM771.762849 470.829589c0.911781 5.740712 11.337644 8.858301 23.292493 6.964603 11.958356-1.893699 12.252932-6.708603 11.344658-12.449315-0.911781-5.737205-2.679233-10.225973-14.634082-8.332274-11.958356 1.893699-20.911342 8.079781-20.003069 13.816986zM606.271123 266.464438c5.425096 2.083068 13.336548-5.390027 17.674521-16.692602 4.337973-11.299068 0.315616-13.964274-5.10948-16.047343-5.421589-2.079562-10.194411-2.791452-14.532383 8.507617-4.337973 11.302575-3.457753 22.152767 1.963835 24.232328zM470.892712 252.237151c5.737205-0.911781 8.854795-11.337644 6.961096-23.296-1.893699-11.954849-6.708603-12.249425-12.449315-11.341151-5.737205 0.911781-10.225973 2.679233-8.332274 14.634082 1.893699 11.958356 8.079781 20.911342 13.816986 20.003069zM405.069151 271.735233c5.30937-2.363616 5.621479-13.24537 0.697863-24.302466-4.923616-11.060603-9.650849-10.099726-14.960219-7.736109-5.30937 2.363616-9.187945 5.235726-4.260822 16.292821 4.923616 11.060603 13.217315 18.10937 18.523178 15.745754zM346.536329 307.603288c4.516822-3.657644 1.998904-14.248329-5.614466-23.653699-7.620384-9.408877-11.937315-7.259178-16.454137-3.601534-4.513315 3.657644-7.518685 7.434521 0.101699 16.843397 7.616877 9.40537 17.453589 14.069479 21.966904 10.411836zM299.281534 357.400548c3.415671-4.699178-1.753425-14.27989-11.548055-21.395288-9.791123-7.115397-13.406685-3.920658-16.822356 0.782028-3.415671 4.699178-5.337425 9.124822 4.453699 16.240219 9.79463 7.115397 20.501041 9.072219 23.916712 4.373041zM266.527562 417.728877c2.079562-5.425096-5.393534-13.336548-16.692603-17.674521-11.302575-4.337973-13.964274-0.315616-16.047343 5.105973-2.083068 5.425096-2.794959 10.197918 8.507617 14.53589 11.299068 4.337973 22.14926 3.457753 24.232329-1.963835zM250.50126 484.481753c0.606685-5.779288-8.661918-11.488438-20.697424-12.754411-12.039014-1.262466-13.571507 3.310466-14.178192 9.089754-0.610192 5.775781-0.059616 10.569644 11.97589 11.835616 12.039014 1.265973 22.293041-2.391671 22.899726-8.170959zM252.296767 553.107288c-0.908274-5.740712-11.337644-8.854795-23.292493-6.961096-11.958356 1.893699-12.252932 6.708603-11.344658 12.449315 0.911781 5.737205 2.679233 10.225973 14.634083 8.332274 11.958356-1.893699 20.911342-8.083288 20.003068-13.820493zM271.794849 618.927342c-2.363616-5.305863-13.24537-5.617973-24.302465-0.694356-11.057096 4.923616-10.099726 9.650849-7.732603 14.960219 2.36011 5.305863 5.232219 9.187945 16.292822 4.260822 11.057096-4.923616 18.105863-13.217315 15.742246-18.526685zM307.662904 677.460164c-3.654137-4.513315-14.244822-1.998904-23.653699 5.617973-9.40537 7.620384-7.255671 11.937315-3.598027 16.454137 3.654137 4.513315 7.434521 7.515178 16.83989-0.101699 9.408877-7.616877 14.069479-17.453589 10.415343-21.970411zM357.460164 724.714959c-4.699178-3.412164-14.27989 1.753425-21.39178 11.548055-7.118904 9.79463-3.920658 13.410192 0.77852 16.825863 4.699178 3.415671 9.124822 5.337425 16.240219-4.453699 7.118904-9.79463 9.072219-20.504548 4.373041-23.916712zM417.788493 757.472438c-5.421589-2.083068-13.336548 5.390027-17.67452 16.692603-4.337973 11.299068-0.315616 13.964274 5.109479 16.047343 5.425096 2.083068 10.194411 2.794959 14.532384-8.507617 4.337973-11.299068 3.457753-22.14926-1.963836-24.232329zM484.54137 773.49874c-5.779288-0.606685-11.488438 8.661918-12.754411 20.697424-1.262466 12.039014 3.310466 13.571507 9.089753 14.178192 5.779288 0.606685 10.573151 0.059616 11.835617-11.979397 1.265973-12.035507-2.391671-22.289534-8.170959-22.896219zM553.170411 771.703233c-5.740712 0.908274-8.858301 11.337644-6.964603 23.292493 1.893699 11.958356 6.708603 12.252932 12.449315 11.344658 5.737205-0.911781 10.225973-2.679233 8.332274-14.637589-1.893699-11.954849-8.079781-20.911342-13.816986-19.999562zM618.990466 752.205151c-5.30937 2.363616-5.621479 13.241863-0.697863 24.302465 4.923616 11.057096 9.654356 10.099726 14.960219 7.732603 5.30937-2.363616 9.187945-5.232219 4.264329-16.292822-4.923616-11.057096-13.220822-18.105863-18.526685-15.745753zM677.523288 716.337096c-4.516822 3.654137-1.998904 14.244822 5.617972 23.653699 7.616877 9.40537 11.933808 7.255671 16.45063 3.598027 4.516822-3.657644 7.518685-7.434521-0.101698-16.83989-7.616877-9.408877-17.453589-14.069479-21.966904-10.415343zM724.778082 666.539836c-3.415671 4.699178 1.753425 14.27989 11.548055 21.39178 9.791123 7.118904 13.406685 3.920658 16.822356-0.77852 3.415671-4.699178 5.337425-9.128329-4.453698-16.243726-9.79463-7.11189-20.501041-9.072219-23.916713-4.369534zM757.535562 606.208c-2.083068 5.425096 5.390027 13.340055 16.692602 17.674521 11.299068 4.341479 13.964274 0.315616 16.043836-5.105973 2.083068-5.425096 2.794959-10.197918-8.50411-14.53589-11.302575-4.337973-22.152767-3.454247-24.232328 1.967342zM623.587945 400.412055c4.106521 4.110027 14.378082 0.501479 22.934795-8.05874 8.560219-8.556712 5.968658-12.628164 1.85863-16.738192-4.103014-4.106521-8.174466-6.698082-16.734685 1.85863-8.556712 8.560219-12.168767 18.831781-8.05874 22.938302zM538.31189 466.453041c5.028822 2.903671 14.016877-3.240329 20.069699-13.722301 6.052822-10.485479 2.49337-13.746849-2.535452-16.650521-5.032329-2.903671-9.636822-4.352-15.689644 6.129973-6.049315 10.485479-6.876932 21.335671-1.844603 24.242849zM590.91463 375.338082c5.028822 2.910685 14.016877-3.236822 20.069699-13.718794 6.052822-10.485479 2.49337-13.743342-2.535452-16.647014-5.032329-2.907178-9.636822-4.355507-15.689644 6.126466-6.049315 10.485479-6.876932 21.335671-1.844603 24.242849zM557.546959 485.68811c2.907178 5.032329 13.760877 4.208219 24.242849-1.844603 10.485479-6.052822 9.033644-10.657315 6.129973-15.689644-2.907178-5.028822-6.168548-8.588274-16.650521-2.535452-10.485479 6.052822-16.625973 15.040877-13.722301 20.069699zM648.661918 433.08537c2.903671 5.032329 13.75737 4.208219 24.239342-1.844603 10.485479-6.052822 9.033644-10.657315 6.126466-15.689644-2.903671-5.028822-6.165041-8.588274-16.647014-2.535452-10.485479 6.052822-16.625973 15.040877-13.722301 20.069699zM564.588712 511.968438c0 5.810849 9.815671 10.520548 21.917809 10.520548 12.105644 0 13.150685-4.709699 13.150684-10.520548s-1.045041-10.520548-13.150684-10.520548c-12.102137 0-21.917808 4.709699-21.917809 10.520548zM669.794192 511.968438c0 5.810849 9.815671 10.520548 21.917808 10.520548 12.105644 0 13.150685-4.709699 13.150685-10.520548s-1.045041-10.520548-13.150685-10.520548c-12.102137 0-21.917808 4.709699-21.917808 10.520548zM664.418192 471.138192c1.507945 5.610959 12.203836 7.620384 23.895671 4.488767 11.691836-3.135123 11.484932-7.953534 9.980493-13.568-1.507945-5.610959-3.734795-9.889315-15.42663-6.757699-11.691836 3.135123-19.953973 10.222466-18.446027 15.836932zM552.861808 359.581808c5.610959 1.500932 12.701808-6.757699 15.836932-18.449534 3.131616-11.691836-1.14674-13.922192-6.757699-15.42663-5.610959-1.504438-10.432877-1.711342-13.568 9.980493-3.131616 11.691836-1.122192 22.391233 4.488767 23.895671zM471.197808 359.581808c5.610959-1.507945 7.62389-12.203836 4.488767-23.895671-3.131616-11.691836-7.953534-11.484932-13.564493-9.980493-5.610959 1.507945-9.889315 3.734795-6.757698 15.42663 3.131616 11.691836 10.222466 19.953973 15.833424 18.446027zM485.751233 466.453041c5.032329-2.907178 4.204712-13.760877-1.84811-24.242849-6.052822-10.485479-10.653808-9.033644-15.686137-6.129973-5.032329 2.907178-8.588274 6.168548-2.535452 16.650521 6.052822 10.485479 15.03737 16.625973 20.069699 13.722301zM433.148493 375.338082c5.032329-2.903671 4.204712-13.75737-1.848109-24.239342-6.052822-10.485479-10.653808-9.033644-15.686137-6.126466-5.032329 2.903671-8.588274 6.165041-2.535452 16.647014 6.052822 10.485479 15.03737 16.625973 20.069698 13.722301zM400.475178 400.412055c4.106521-4.106521 0.497973-14.378082-8.05874-22.934795-8.560219-8.560219-12.631671-5.968658-16.738191-1.85863-4.110027 4.103014-6.698082 8.174466 1.85863 16.734685 8.556712 8.556712 18.831781 12.168767 22.934794 8.05874zM466.516164 485.68811c2.903671-5.028822-3.240329-14.016877-13.725808-20.069699-10.481973-6.052822-13.743342-2.49337-16.647014 2.535452-2.907178 5.032329-4.355507 9.636822 6.126466 15.689644 10.485479 6.049315 21.339178 6.876932 24.24285 1.844603zM375.401205 433.08537c2.907178-5.028822-3.236822-14.016877-13.718794-20.069699-10.485479-6.052822-13.746849-2.49337-16.650521 2.535452-2.903671 5.032329-4.355507 9.636822 6.129973 15.689644 10.481973 6.049315 21.335671 6.876932 24.239342 1.844603zM359.641425 471.138192c1.504438-5.610959-6.754192-12.701808-18.446028-15.836932-11.695342-3.131616-13.922192 1.14674-15.430137 6.757699-1.500932 5.610959-1.711342 10.432877 9.984 13.568 11.691836 3.131616 22.387726 1.122192 23.892165-4.488767zM459.470904 511.968438c0-5.810849-9.812164-10.520548-21.917808-10.520548s-13.150685 4.709699-13.150685 10.520548 1.045041 10.520548 13.150685 10.520548 21.917808-4.709699 21.917808-10.520548zM354.265425 511.968438c0-5.810849-9.812164-10.520548-21.917809-10.520548s-13.150685 4.709699-13.150684 10.520548 1.045041 10.520548 13.150684 10.520548 21.917808-4.709699 21.917809-10.520548zM359.641425 552.802192c-1.504438-5.610959-12.203836-7.62389-23.892165-4.488767-11.695342 3.131616-11.484932 7.953534-9.980493 13.564493 1.504438 5.610959 3.731288 9.889315 15.423123 6.757698 11.695342-3.131616 19.953973-10.222466 18.449535-15.833424zM466.516164 538.248767c-2.910685-5.032329-13.760877-4.204712-24.246356 1.84811-10.481973 6.052822-9.033644 10.653808-6.126466 15.686137 2.903671 5.032329 6.165041 8.588274 16.647014 2.535452 10.485479-6.052822 16.629479-15.03737 13.722302-20.069699zM375.401205 590.851507c-2.903671-5.032329-13.75737-4.204712-24.239342 1.848109-10.485479 6.052822-9.033644 10.653808-6.129973 15.686137 2.907178 5.032329 6.165041 8.588274 16.650521 2.535452 10.481973-6.052822 16.622466-15.03737 13.718794-20.069698zM400.475178 623.524822c-4.110027-4.106521-14.378082-0.497973-22.938301 8.05874-8.556712 8.560219-5.968658 12.631671-1.85863 16.738191 4.106521 4.110027 8.177973 6.698082 16.738191-1.85863 8.556712-8.556712 12.168767-18.831781 8.05874-22.934794zM485.751233 557.483836c-5.032329-2.903671-14.016877 3.240329-20.069699 13.725808-6.052822 10.481973-2.496877 13.743342 2.535452 16.647014 5.032329 2.907178 9.633315 4.355507 15.686137-6.126466 6.052822-10.485479 6.880438-21.339178 1.84811-24.24285zM433.148493 648.598795c-5.032329-2.907178-14.016877 3.236822-20.069698 13.718794-6.052822 10.485479-2.496877 13.746849 2.535452 16.650521 5.032329 2.903671 9.633315 4.355507 15.686137-6.129973 6.052822-10.481973 6.880438-21.335671 1.848109-24.239342zM471.197808 664.358575c-5.610959-1.504438-12.701808 6.754192-15.833424 18.446028-3.135123 11.695342 1.14674 13.922192 6.757698 15.430137 5.610959 1.500932 10.432877 1.711342 13.564493-9.984 3.135123-11.691836 1.122192-22.387726-4.488767-23.892165zM512.031562 564.529096c-5.810849 0-10.520548 9.812164-10.520548 21.917808s4.709699 13.150685 10.520548 13.150685 10.520548-1.045041 10.520548-13.150685-4.709699-21.917808-10.520548-21.917808zM512.031562 669.734575c-5.810849 0-10.520548 9.812164-10.520548 21.917809s4.709699 13.150685 10.520548 13.150684 10.520548-1.045041 10.520548-13.150684-4.709699-21.917808-10.520548-21.917809zM552.861808 664.358575c-5.610959 1.504438-7.620384 12.203836-4.488767 23.892165 3.135123 11.695342 7.953534 11.484932 13.568 9.980493 5.610959-1.504438 9.889315-3.731288 6.757699-15.423123-3.135123-11.695342-10.222466-19.953973-15.836932-18.449535zM538.31189 557.483836c-5.032329 2.910685-4.208219 13.760877 1.844603 24.246356 6.052822 10.481973 10.657315 9.033644 15.689644 6.126466 5.028822-2.903671 8.588274-6.165041 2.535452-16.647014-6.052822-10.485479-15.040877-16.629479-20.069699-13.722302zM590.91463 648.598795c-5.032329 2.903671-4.208219 13.75737 1.844603 24.239342 6.052822 10.485479 10.657315 9.033644 15.689644 6.129973 5.028822-2.907178 8.588274-6.165041 2.535452-16.650521-6.052822-10.481973-15.040877-16.622466-20.069699-13.718794zM623.587945 623.524822c-4.110027 4.110027-0.501479 14.378082 8.05874 22.938301 8.556712 8.556712 12.628164 5.968658 16.738192 1.85863 4.106521-4.106521 6.698082-8.177973-1.85863-16.738191-8.560219-8.556712-18.831781-12.168767-22.938302-8.05874zM557.546959 538.248767c-2.903671 5.032329 3.240329 14.016877 13.722301 20.069699 10.485479 6.052822 13.746849 2.496877 16.650521-2.535452 2.903671-5.032329 4.352-9.633315-6.129973-15.686137-10.485479-6.052822-21.335671-6.880438-24.242849-1.84811zM648.661918 590.851507c-2.910685 5.032329 3.236822 14.016877 13.718794 20.069698 10.485479 6.052822 13.743342 2.496877 16.647014-2.535452 2.907178-5.032329 4.355507-9.633315-6.126466-15.686137-10.485479-6.052822-21.335671-6.880438-24.242849-1.848109zM664.418192 552.802192c-1.500932 5.610959 6.757699 12.701808 18.449534 15.833424 11.691836 3.135123 13.922192-1.14674 15.42663-6.757698 1.504438-5.610959 1.711342-10.432877-9.980493-13.564493-11.691836-3.135123-22.391233-1.122192-23.895671 4.488767z" fill="#FFE5E9" p-id="19915"></path></svg>